<?xml version="1.0" encoding="UTF-8" standalone="no"?>
<svg
   class="icon icon-tabler icon-tabler-menu-2"
   width="24"
   height="24"
   viewBox="0 0 24 24"
   stroke-width="2"
   stroke="currentColor"
   fill="none"
   stroke-linecap="round"
   stroke-linejoin="round"
   version="1.1"
   id="svg10"
   sodipodi:docname="menu-2.svg"
   inkscape:version="1.1 (c68e22c387, 2021-05-23)"
   xmlns:inkscape="http://www.inkscape.org/namespaces/inkscape"
   xmlns:sodipodi="http://sodipodi.sourceforge.net/DTD/sodipodi-0.dtd"
   xmlns="http://www.w3.org/2000/svg"
   xmlns:svg="http://www.w3.org/2000/svg">
  <defs
     id="defs14" />
  <sodipodi:namedview
     id="namedview12"
     pagecolor="#ffffff"
     bordercolor="#666666"
     borderopacity="1.0"
     inkscape:pageshadow="2"
     inkscape:pageopacity="0.0"
     inkscape:pagecheckerboard="0"
     showgrid="false"
     inkscape:zoom="36.375"
     inkscape:cx="11.986254"
     inkscape:cy="11.945017"
     inkscape:window-width="2560"
     inkscape:window-height="1351"
     inkscape:window-x="-9"
     inkscape:window-y="-9"
     inkscape:window-maximized="1"
     inkscape:current-layer="svg10" />
  <path
     stroke="none"
     d="M0 0h24v24H0z"
     fill="none"
     id="path2" />
  <path
     d="M4 6l16 0"
     id="path4" />
  <path
     d="M4 12l16 0"
     id="path6" />
  <path
     d="M4 18l16 0"
     id="path8" />
  <path
     style="fill:#ffffff;fill-rule:evenodd;stroke-width:0.0549828"
     d="M 3.8225513,18.96667 C 3.5250464,18.908018 3.2238856,18.671535 3.0980014,18.397724 3.0502144,18.293783 3.038322,18.216199 3.0380901,18.006873 3.0378397,17.78092 3.0476989,17.724588 3.1112078,17.5891 3.20485,17.389326 3.3961986,17.197977 3.5959726,17.104335 l 0.1566047,-0.07341 H 12 20.247423 l 0.156604,0.07341 c 0.199775,0.09364 0.391123,0.284991 0.484765,0.484765 0.06341,0.135271 0.07341,0.192182 0.07341,0.417773 0,0.230264 -0.0091,0.279679 -0.07682,0.417597 -0.09767,0.198885 -0.326382,0.410325 -0.534958,0.494551 l -0.157984,0.0638 -8.123711,0.004 c -4.5722449,0.0023 -8.1772506,-0.0066 -8.2461777,-0.02015 z"
     id="path905" />
  <path
     style="fill:#ffffff;fill-rule:evenodd;stroke-width:0.0549828"
     d="M 3.7070566,12.937725 C 3.4365391,12.84084 3.2501299,12.677725 3.1133721,12.418229 3.0455901,12.289614 3.0378408,12.246716 3.0378219,12 c -2.01e-5,-0.260526 0.00487,-0.283933 0.093425,-0.44724 0.1074959,-0.198235 0.2417343,-0.329442 0.4485222,-0.438395 L 3.725086,11.037805 H 12 20.274914 l 0.172326,0.09345 c 0.198248,0.107503 0.329461,0.241754 0.438373,0.448522 0.06894,0.130881 0.07654,0.172627 0.07654,0.420231 0,0.247604 -0.0076,0.28935 -0.07654,0.420231 -0.108912,0.206768 -0.240125,0.341019 -0.438373,0.448522 l -0.172326,0.09345 -8.233677,0.0058 c -6.727659,0.0047 -8.2520599,-8.23e-4 -8.3341804,-0.03023 z"
     id="path944" />
  <path
     style="fill:#ffffff;fill-rule:evenodd;stroke-width:0.0549828"
     d="M 3.6920917,6.9317206 C 3.4010823,6.8309751 3.1885361,6.6219704 3.0773455,6.3272176 2.9943629,6.1072404 3.0108562,5.7881929 3.1163582,5.5725545 3.2121328,5.3767984 3.442157,5.1647381 3.6495764,5.0809787 L 3.8075601,5.0171821 H 12 20.19244 l 0.157984,0.063797 c 0.208576,0.084227 0.437291,0.2956663 0.534958,0.4945516 0.06773,0.1379181 0.07682,0.1873329 0.07682,0.4175968 0,0.2255912 -0.01,0.2825017 -0.07341,0.4177732 -0.09364,0.199774 -0.28499,0.3911225 -0.484765,0.4847648 l -0.156604,0.073407 -8.206186,0.00607 c -7.8402993,0.0058 -8.2125596,0.00386 -8.3491453,-0.043422 z"
     id="path983" />
</svg>
