<?xml version="1.0" encoding="UTF-8" standalone="no"?>
<svg
   width="24"
   height="24"
   viewBox="0 0 24 24"
   fill="none"
   stroke="currentColor"
   stroke-width="2"
   stroke-linecap="round"
   stroke-linejoin="round"
   class="feather feather-shopping-cart"
   version="1.1"
   id="svg8"
   sodipodi:docname="shopping-cart.svg"
   inkscape:version="1.1 (c68e22c387, 2021-05-23)"
   xmlns:inkscape="http://www.inkscape.org/namespaces/inkscape"
   xmlns:sodipodi="http://sodipodi.sourceforge.net/DTD/sodipodi-0.dtd"
   xmlns="http://www.w3.org/2000/svg"
   xmlns:svg="http://www.w3.org/2000/svg">
  <defs
     id="defs12" />
  <sodipodi:namedview
     id="namedview10"
     pagecolor="#ffffff"
     bordercolor="#666666"
     borderopacity="1.0"
     inkscape:pageshadow="2"
     inkscape:pageopacity="0.0"
     inkscape:pagecheckerboard="0"
     showgrid="false"
     inkscape:zoom="36.375"
     inkscape:cx="11.986254"
     inkscape:cy="11.945017"
     inkscape:window-width="2560"
     inkscape:window-height="1351"
     inkscape:window-x="-9"
     inkscape:window-y="-9"
     inkscape:window-maximized="1"
     inkscape:current-layer="svg8" />
  <circle
     cx="9"
     cy="21"
     r="1"
     id="circle2" />
  <circle
     cx="20"
     cy="21"
     r="1"
     id="circle4" />
  <path
     d="M1 1h4l2.68 13.39a2 2 0 0 0 2 1.61h9.72a2 2 0 0 0 2-1.61L23 6H6"
     id="path6" />
  <path
     style="fill:#ffffff;fill-rule:evenodd;stroke-width:0.0549828"
     d="M 9.2514131,16.959322 C 8.8181284,16.895498 8.3403461,16.714109 7.9808236,16.476945 7.750579,16.325061 7.3671129,15.946514 7.2029622,15.709061 7.0088805,15.428313 6.8275197,15.034446 6.7518065,14.729274 6.717004,14.588998 6.1269971,11.663154 5.4406801,8.2273985 L 4.1928311,1.98057 2.4738136,1.9731029 0.75479632,1.9656357 0.57128517,1.8752784 C 0.23182759,1.7081361 0.05355923,1.4325456 0.03400047,1.0446735 0.02418231,0.84996855 0.03257182,0.78348693 0.08430414,0.64604811 0.16870839,0.4218088 0.41614208,0.17250941 0.64604811,0.08006843 L 0.81099656,0.0137457 2.8723445,0.00571376 C 4.1523049,7.26455e-4 5.0006131,0.00810037 5.1102329,0.02516659 5.4639893,0.08024138 5.7455395,0.28608465 5.8842628,0.59106529 5.9415928,0.71710458 6.0588803,1.2569691 6.3814812,2.8797251 l 0.42219,2.1237113 h 8.0982698 c 5.710633,0 8.146365,0.00881 8.261395,0.029872 0.219073,0.040117 0.401758,0.1439481 0.562266,0.3195693 0.166784,0.1824882 0.246907,0.3865553 0.246907,0.6288538 0,0.250458 -1.595606,8.6200285 -1.708139,8.9598495 -0.284346,0.858653 -0.953131,1.544305 -1.812081,1.857783 -0.514729,0.187853 -0.0428,0.173319 -5.813114,0.179017 -2.899607,0.0029 -5.2965028,-0.0056 -5.3877619,-0.01906 z M 19.853612,14.923425 c 0.08581,-0.04023 0.210389,-0.123256 0.276844,-0.184511 0.25476,-0.23483 0.205138,-0.02813 0.972658,-4.051547 0.383665,-2.0112122 0.697573,-3.6675042 0.697573,-3.6806492 0,-0.013479 -3.18383,-0.0239 -7.301949,-0.0239 H 7.1967885 l 0.014592,0.061856 c 0.00803,0.034021 0.3383274,1.6762887 0.7340039,3.6494842 0.5133121,2.559832 0.7387846,3.630946 0.7870342,3.738832 0.1143566,0.255699 0.336052,0.445825 0.628406,0.53892 0.08768,0.02792 1.1462754,0.03397 5.2233674,0.02984 l 5.113403,-0.0052 z"
     id="path903" />
  <path
     style="fill:#ffffff;fill-rule:evenodd;stroke-width:0.0549828"
     d="M 8.5925014,22.9374 C 7.8659035,22.781677 7.3196198,22.268361 7.0894757,21.52508 c -0.075704,-0.244496 -0.088933,-0.716276 -0.026907,-0.959536 0.1919451,-0.752789 0.781903,-1.339507 1.506432,-1.498161 1.3230715,-0.28972 2.5498633,0.810505 2.3976283,2.150267 -0.131566,1.157874 -1.242154,1.962352 -2.3741276,1.71975 z"
     id="path942" />
  <path
     style="fill:#ffffff;fill-rule:evenodd;stroke-width:0.0549828"
     d="m 19.587629,22.937262 c -0.404575,-0.08635 -0.859552,-0.363508 -1.115021,-0.679239 -0.516542,-0.638386 -0.595154,-1.458703 -0.210971,-2.201485 0.08398,-0.162367 0.173506,-0.280191 0.3354,-0.441418 0.251776,-0.250739 0.481644,-0.395118 0.798152,-0.501319 0.196935,-0.06608 0.260175,-0.07379 0.604811,-0.07379 0.344636,0 0.407876,0.0077 0.604811,0.07379 0.317008,0.106369 0.546764,0.250842 0.797246,0.501319 0.610054,0.610041 0.75323,1.538626 0.354294,2.297804 -0.411255,0.782619 -1.310731,1.207462 -2.168722,1.024338 z"
     id="path981" />
</svg>
